<svg width="548" height="689" viewBox="0 0 548 689" fill="none" xmlns="http://www.w3.org/2000/svg">
<path fill-rule="evenodd" clip-rule="evenodd" d="M0 -1H548V689H547.989L502 611.513L456.5 688.176L411 611.513L365.457 688.249L319.5 611.513L273.543 688.249L228 611.513L182.5 688.176L137 611.513L91.011 689H90.989L45 611.513L0 687.334V-1Z" fill="white"/>
<path d="M277 15L294.538 38.1314L321.873 28.0966L324.045 56.9805L352.499 63.2283L338.616 88.6943L359.155 109.241L333.625 123.204L339.727 151.526L310.655 149.553L300.384 176.658L277 159.375L253.616 176.658L243.345 149.553L214.273 151.526L220.375 123.204L194.845 109.241L215.384 88.6943L201.501 63.2283L229.955 56.9805L232.127 28.0966L259.462 38.1314L277 15Z" fill="#294CFF"/>
<rect x="33" y="312" width="487" height="12" rx="6" fill="#294CFF"/>
</svg>
