<svg width="548" height="690" viewBox="0 0 548 690" fill="none" xmlns="http://www.w3.org/2000/svg">
<path fill-rule="evenodd" clip-rule="evenodd" d="M0 0H548V690H547.989L502 612.513L456.5 689.176L411 612.513L365.457 689.249L319.5 612.513L273.543 689.249L228 612.513L182.5 689.176L137 612.513L91.011 690H90.989L45 612.513L0 688.334V0Z" fill="white"/>
<path d="M277 16L294.538 39.1314L321.873 29.0966L324.045 57.9805L352.499 64.2283L338.616 89.6943L359.155 110.241L333.625 124.204L339.727 152.526L310.655 150.553L300.384 177.658L277 160.375L253.616 177.658L243.345 150.553L214.273 152.526L220.375 124.204L194.845 110.241L215.384 89.6943L201.501 64.2283L229.955 57.9805L232.127 29.0966L259.462 39.1314L277 16Z" fill="#294CFF"/>
</svg>
