<svg width="822" height="587" viewBox="0 0 822 587" fill="none" xmlns="http://www.w3.org/2000/svg">
<g filter="url(#filter0_b_325_2)">
<path d="M376.078 452.244C320.809 430.941 106.781 147.997 3.35463 4.65422C1.92383 2.67121 3.41146 0 5.85677 0H816.203C818.637 0 820.126 2.64902 818.721 4.63623C717.286 148.088 515.012 436.355 478.157 452.244C439.862 468.753 395.778 461.217 376.078 452.244Z" fill="url(#paint0_linear_325_2)"/>
</g>
<path d="M369 537C369 521.536 381.536 509 397 509V509C412.464 509 425 521.536 425 537V581C425 584.314 422.314 587 419 587H375C371.686 587 369 584.314 369 581V537Z" fill="url(#paint1_linear_325_2)"/>
<defs>
<filter id="filter0_b_325_2" x="-16.2046" y="-19" width="854.469" height="500" filterUnits="userSpaceOnUse" color-interpolation-filters="sRGB">
<feFlood flood-opacity="0" result="BackgroundImageFix"/>
<feGaussianBlur in="BackgroundImage" stdDeviation="9.5"/>
<feComposite in2="SourceAlpha" operator="in" result="effect1_backgroundBlur_325_2"/>
<feBlend mode="normal" in="SourceGraphic" in2="effect1_backgroundBlur_325_2" result="shape"/>
</filter>
<linearGradient id="paint0_linear_325_2" x1="792.414" y1="302.138" x2="-231.927" y2="39.322" gradientUnits="userSpaceOnUse">
<stop stop-color="white" stop-opacity="0"/>
<stop offset="0.878094" stop-color="white"/>
</linearGradient>
<linearGradient id="paint1_linear_325_2" x1="397" y1="584.636" x2="397" y2="486.102" gradientUnits="userSpaceOnUse">
<stop stop-color="white"/>
<stop offset="1" stop-color="white" stop-opacity="0"/>
</linearGradient>
</defs>
</svg>
