<svg width="629" height="522" viewBox="0 0 629 522" fill="none" xmlns="http://www.w3.org/2000/svg">
<g filter="url(#filter0_b_290_3)">
<path d="M287.778 346.524C245.626 330.256 82.7998 114.844 3.3612 4.66809C1.93158 2.68531 3.40767 0 5.8521 0H623.208C625.641 0 627.119 2.66308 625.716 4.65053C547.846 114.934 393.997 334.39 365.889 346.524C336.586 359.174 302.852 353.4 287.778 346.524Z" fill="url(#paint0_linear_290_3)"/>
</g>
<path d="M279 405C279 393.954 287.954 385 299 385H303C314.046 385 323 393.954 323 405V516C323 519.314 320.314 522 317 522H285C281.686 522 279 519.314 279 516V405Z" fill="url(#paint1_linear_290_3)"/>
<defs>
<filter id="filter0_b_290_3" x="-16.1992" y="-19" width="661.459" height="392" filterUnits="userSpaceOnUse" color-interpolation-filters="sRGB">
<feFlood flood-opacity="0" result="BackgroundImageFix"/>
<feGaussianBlur in="BackgroundImage" stdDeviation="9.5"/>
<feComposite in2="SourceAlpha" operator="in" result="effect1_backgroundBlur_290_3"/>
<feBlend mode="normal" in="SourceGraphic" in2="effect1_backgroundBlur_290_3" result="shape"/>
</filter>
<linearGradient id="paint0_linear_290_3" x1="606.361" y1="231.509" x2="-177.602" y2="30.6361" gradientUnits="userSpaceOnUse">
<stop stop-color="white" stop-opacity="0"/>
<stop offset="0.878094" stop-color="white"/>
</linearGradient>
<linearGradient id="paint1_linear_290_3" x1="301" y1="517.848" x2="301" y2="344.782" gradientUnits="userSpaceOnUse">
<stop stop-color="white"/>
<stop offset="1" stop-color="white" stop-opacity="0"/>
</linearGradient>
</defs>
</svg>
