<svg width="593" height="536" viewBox="0 0 593 536" fill="none" xmlns="http://www.w3.org/2000/svg">
<g filter="url(#filter0_d_369_7)">
<path d="M300.105 509C271.438 405.159 211.618 196.828 201.666 194.232C191.714 191.636 88.9839 226.682 38.863 244.53C30.5696 246.152 16.4709 243.881 26.423 221.815C36.375 199.748 147.398 84.6217 201.666 29.8168C206.173 26.2112 218 19 229.25 19C240.5 19 365.949 51.2368 444.518 89.8499C455.84 95.4144 465.936 109.753 456.417 115.81C446.897 121.868 251.394 221.815 241.69 178.548C235.56 167.19 230.981 143.934 261.703 141.77C300.105 139.066 364.468 231.009 404.493 212.62C436.513 197.909 528.173 136.903 570 108.238" stroke="#0500FF" stroke-width="15" stroke-linecap="round"/>
</g>
<defs>
<filter id="filter0_d_369_7" x="0.501831" y="0.5" width="591.999" height="535.002" filterUnits="userSpaceOnUse" color-interpolation-filters="sRGB">
<feFlood flood-opacity="0" result="BackgroundImageFix"/>
<feColorMatrix in="SourceAlpha" type="matrix" values="0 0 0 0 0 0 0 0 0 0 0 0 0 0 0 0 0 0 127 0" result="hardAlpha"/>
<feOffset dy="4"/>
<feGaussianBlur stdDeviation="7.5"/>
<feColorMatrix type="matrix" values="0 0 0 0 0.0196078 0 0 0 0 0 0 0 0 0 1 0 0 0 0.8 0"/>
<feBlend mode="normal" in2="BackgroundImageFix" result="effect1_dropShadow_369_7"/>
<feBlend mode="normal" in="SourceGraphic" in2="effect1_dropShadow_369_7" result="shape"/>
</filter>
</defs>
</svg>
